<svg xmlns="http://www.w3.org/2000/svg" width="720" height="308" viewBox="0 0 720 308" font-family="'Encode Sans', ui-sans-serif, system-ui, -apple-system, 'Segoe UI', Roboto, sans-serif" font-size="13"><title>libuv threadpool</title><text x="191" y="46" fill="#1a1714" font-weight="700" font-size="14">libuv threadpool<tspan dx="9" fill="#6b6358" font-weight="400">8 vCPU, higher is better</tspan></text><rect x="191" y="56" width="10" height="10" rx="2" fill="#efe9dd"/><text x="205" y="65" fill="#6b6358" font-size="12">node</text><rect x="248.9" y="56" width="10" height="10" rx="2" fill="#d6431f"/><text x="262.9" y="65" fill="#6b6358" font-size="12">nub</text><text x="179" y="106" text-anchor="end" fill="#1a1714" font-family="'Geist Mono', ui-monospace, SFMono-Regular, Menlo, monospace" font-size="12">bcrypt hashing</text><rect x="191" y="88.5" width="166.0" height="12" rx="4" fill="#efe9dd"/><text x="364.0" y="99.5" fill="#6b6358" font-size="11">18 req/s</text><rect x="191" y="103.5" width="306.7" height="12" rx="4" fill="#d6431f"/><text x="504.7" y="114.5" fill="#1a1714" font-weight="700" font-size="11">33 req/s</text><text x="565.5" y="114.5" fill="#6b6358" font-size="11">1.8× faster</text><text x="179" y="160" text-anchor="end" fill="#1a1714" font-family="'Geist Mono', ui-monospace, SFMono-Regular, Menlo, monospace" font-size="12">sharp thumbnails</text><rect x="191" y="142.5" width="203.6" height="12" rx="4" fill="#efe9dd"/><text x="401.6" y="153.5" fill="#6b6358" font-size="11">55 req/s</text><rect x="191" y="157.5" width="339.3" height="12" rx="4" fill="#d6431f"/><text x="537.3" y="168.5" fill="#1a1714" font-weight="700" font-size="11">91 req/s</text><text x="598.1" y="168.5" fill="#6b6358" font-size="11">1.7× faster</text><text x="179" y="214" text-anchor="end" fill="#1a1714" font-family="'Geist Mono', ui-monospace, SFMono-Regular, Menlo, monospace" font-size="12">pbkdf2 derivation</text><rect x="191" y="196.5" width="219.4" height="12" rx="4" fill="#efe9dd"/><text x="417.4" y="207.5" fill="#6b6358" font-size="11">47 req/s</text><rect x="191" y="211.5" width="302.7" height="12" rx="4" fill="#d6431f"/><text x="500.7" y="222.5" fill="#1a1714" font-weight="700" font-size="11">65 req/s</text><text x="561.5" y="222.5" fill="#6b6358" font-size="11">1.4× faster</text><text x="179" y="268" text-anchor="end" fill="#1a1714" font-family="'Geist Mono', ui-monospace, SFMono-Regular, Menlo, monospace" font-size="12">RSA keygen</text><rect x="191" y="250.5" width="257.9" height="12" rx="4" fill="#efe9dd"/><text x="455.9" y="261.5" fill="#6b6358" font-size="11">87 req/s</text><rect x="191" y="265.5" width="297.1" height="12" rx="4" fill="#d6431f"/><text x="495.1" y="276.5" fill="#1a1714" font-weight="700" font-size="11">100 req/s</text><text x="562.5" y="276.5" fill="#6b6358" font-size="11">1.2× faster</text></svg>