<svg xmlns="http://www.w3.org/2000/svg" width="720" height="436" viewBox="0 0 720 436" font-family="'Encode Sans', ui-sans-serif, system-ui, -apple-system, 'Segoe UI', Roboto, sans-serif" font-size="13"><title>libuv threadpool</title><text x="200" y="38" fill="#ece6d8" font-weight="700" font-size="14">libuv threadpool<tspan dx="9" fill="#aba297" font-weight="400">16 vCPU, higher is better</tspan></text><rect x="200" y="48" width="10" height="10" rx="2" fill="#2a2620"/><text x="214" y="57" fill="#aba297" font-size="12">node</text><rect x="257.9" y="48" width="10" height="10" rx="2" fill="#ff5d3b"/><text x="271.9" y="57" fill="#aba297" font-size="12">nub</text><line x1="200.0" y1="70" x2="200.0" y2="118" stroke="#2a2620" stroke-width="1"/><text x="200.0" y="133" text-anchor="middle" fill="#aba297" font-size="11">0</text><line x1="302.3" y1="70" x2="302.3" y2="118" stroke="#2a2620" stroke-width="1"/><text x="302.3" y="133" text-anchor="middle" fill="#aba297" font-size="11">20</text><line x1="404.5" y1="70" x2="404.5" y2="118" stroke="#2a2620" stroke-width="1"/><text x="404.5" y="133" text-anchor="middle" fill="#aba297" font-size="11">40</text><line x1="506.8" y1="70" x2="506.8" y2="118" stroke="#2a2620" stroke-width="1"/><text x="506.8" y="133" text-anchor="middle" fill="#aba297" font-size="11">60</text><line x1="609.0" y1="70" x2="609.0" y2="118" stroke="#2a2620" stroke-width="1"/><text x="609.0" y="133" text-anchor="middle" fill="#aba297" font-size="11">80 req/s</text><text x="188" y="98" text-anchor="end" fill="#ece6d8" font-family="'Geist Mono', ui-monospace, SFMono-Regular, Menlo, monospace" font-size="12">bcrypt hashing</text><rect x="200" y="80.5" width="91.5" height="12" rx="4" fill="#2a2620"/><text x="298.5" y="91.5" fill="#aba297" font-size="11">18 req/s</text><rect x="200" y="95.5" width="339.1" height="12" rx="4" fill="#ff5d3b"/><text x="546.1" y="106.5" fill="#ece6d8" font-weight="700" font-size="11">66 req/s</text><text x="606.9" y="106.5" fill="#aba297" font-size="11">3.7× faster</text><line x1="200.0" y1="164" x2="200.0" y2="212" stroke="#2a2620" stroke-width="1"/><text x="200.0" y="227" text-anchor="middle" fill="#aba297" font-size="11">0</text><line x1="302.3" y1="164" x2="302.3" y2="212" stroke="#2a2620" stroke-width="1"/><text x="302.3" y="227" text-anchor="middle" fill="#aba297" font-size="11">50</text><line x1="404.5" y1="164" x2="404.5" y2="212" stroke="#2a2620" stroke-width="1"/><text x="404.5" y="227" text-anchor="middle" fill="#aba297" font-size="11">100</text><line x1="506.8" y1="164" x2="506.8" y2="212" stroke="#2a2620" stroke-width="1"/><text x="506.8" y="227" text-anchor="middle" fill="#aba297" font-size="11">150</text><line x1="609.0" y1="164" x2="609.0" y2="212" stroke="#2a2620" stroke-width="1"/><text x="609.0" y="227" text-anchor="middle" fill="#aba297" font-size="11">200 req/s</text><text x="188" y="192" text-anchor="end" fill="#ece6d8" font-family="'Geist Mono', ui-monospace, SFMono-Regular, Menlo, monospace" font-size="12">sharp thumbnails</text><rect x="200" y="174.5" width="116.8" height="12" rx="4" fill="#2a2620"/><text x="323.8" y="185.5" fill="#aba297" font-size="11">57 req/s</text><rect x="200" y="189.5" width="366.5" height="12" rx="4" fill="#ff5d3b"/><text x="573.5" y="200.5" fill="#ece6d8" font-weight="700" font-size="11">179 req/s</text><text x="640.9" y="200.5" fill="#aba297" font-size="11">3.1× faster</text><line x1="200.0" y1="258" x2="200.0" y2="306" stroke="#2a2620" stroke-width="1"/><text x="200.0" y="321" text-anchor="middle" fill="#aba297" font-size="11">0</text><line x1="268.2" y1="258" x2="268.2" y2="306" stroke="#2a2620" stroke-width="1"/><text x="268.2" y="321" text-anchor="middle" fill="#aba297" font-size="11">25</text><line x1="336.3" y1="258" x2="336.3" y2="306" stroke="#2a2620" stroke-width="1"/><text x="336.3" y="321" text-anchor="middle" fill="#aba297" font-size="11">50</text><line x1="404.5" y1="258" x2="404.5" y2="306" stroke="#2a2620" stroke-width="1"/><text x="404.5" y="321" text-anchor="middle" fill="#aba297" font-size="11">75</text><line x1="472.7" y1="258" x2="472.7" y2="306" stroke="#2a2620" stroke-width="1"/><text x="472.7" y="321" text-anchor="middle" fill="#aba297" font-size="11">100</text><line x1="540.8" y1="258" x2="540.8" y2="306" stroke="#2a2620" stroke-width="1"/><text x="540.8" y="321" text-anchor="middle" fill="#aba297" font-size="11">125</text><line x1="609.0" y1="258" x2="609.0" y2="306" stroke="#2a2620" stroke-width="1"/><text x="609.0" y="321" text-anchor="middle" fill="#aba297" font-size="11">150 req/s</text><text x="188" y="286" text-anchor="end" fill="#ece6d8" font-family="'Geist Mono', ui-monospace, SFMono-Regular, Menlo, monospace" font-size="12">pbkdf2 derivation</text><rect x="200" y="268.5" width="124.6" height="12" rx="4" fill="#2a2620"/><text x="331.6" y="279.5" fill="#aba297" font-size="11">46 req/s</text><rect x="200" y="283.5" width="355.8" height="12" rx="4" fill="#ff5d3b"/><text x="562.8" y="294.5" fill="#ece6d8" font-weight="700" font-size="11">131 req/s</text><text x="630.2" y="294.5" fill="#aba297" font-size="11">2.9× faster</text><line x1="200.0" y1="352" x2="200.0" y2="400" stroke="#2a2620" stroke-width="1"/><text x="200.0" y="415" text-anchor="middle" fill="#aba297" font-size="11">0</text><line x1="281.8" y1="352" x2="281.8" y2="400" stroke="#2a2620" stroke-width="1"/><text x="281.8" y="415" text-anchor="middle" fill="#aba297" font-size="11">50</text><line x1="363.6" y1="352" x2="363.6" y2="400" stroke="#2a2620" stroke-width="1"/><text x="363.6" y="415" text-anchor="middle" fill="#aba297" font-size="11">100</text><line x1="445.4" y1="352" x2="445.4" y2="400" stroke="#2a2620" stroke-width="1"/><text x="445.4" y="415" text-anchor="middle" fill="#aba297" font-size="11">150</text><line x1="527.2" y1="352" x2="527.2" y2="400" stroke="#2a2620" stroke-width="1"/><text x="527.2" y="415" text-anchor="middle" fill="#aba297" font-size="11">200</text><line x1="609.0" y1="352" x2="609.0" y2="400" stroke="#2a2620" stroke-width="1"/><text x="609.0" y="415" text-anchor="middle" fill="#aba297" font-size="11">250 req/s</text><text x="188" y="380" text-anchor="end" fill="#ece6d8" font-family="'Geist Mono', ui-monospace, SFMono-Regular, Menlo, monospace" font-size="12">RSA keygen</text><rect x="200" y="362.5" width="144.8" height="12" rx="4" fill="#2a2620"/><text x="351.8" y="373.5" fill="#aba297" font-size="11">89 req/s</text><rect x="200" y="377.5" width="329.5" height="12" rx="4" fill="#ff5d3b"/><text x="536.5" y="388.5" fill="#ece6d8" font-weight="700" font-size="11">201 req/s</text><text x="603.9" y="388.5" fill="#aba297" font-size="11">2.3× faster</text></svg>