<svg xmlns="http://www.w3.org/2000/svg" width="720" height="244" viewBox="0 0 720 244" font-family="'Encode Sans', ui-sans-serif, system-ui, -apple-system, 'Segoe UI', Roboto, sans-serif" font-size="13"><title>bcrypt server</title><text x="184" y="46" fill="#ece6d8" font-weight="700" font-size="14">bcrypt server<tspan dx="9" fill="#aba297" font-weight="400">16 vCPU, higher is better</tspan></text><rect x="184" y="56" width="10" height="10" rx="2" fill="#2a2620"/><text x="198" y="65" fill="#aba297" font-size="12">node</text><rect x="241.9" y="56" width="10" height="10" rx="2" fill="#ff5d3b"/><text x="255.9" y="65" fill="#aba297" font-size="12">nub</text><text x="172" y="106" text-anchor="end" fill="#ece6d8" font-family="'Geist Mono', ui-monospace, SFMono-Regular, Menlo, monospace" font-size="12">idle box</text><rect x="184" y="88.5" width="86.3" height="12" rx="4" fill="#2a2620"/><text x="277.3" y="99.5" fill="#aba297" font-size="11">18 req/s</text><rect x="184" y="103.5" width="321.1" height="12" rx="4" fill="#ff5d3b"/><text x="512.1" y="114.5" fill="#ece6d8" font-weight="700" font-size="11">66 req/s</text><text x="572.9" y="114.5" fill="#aba297" font-size="11">3.7× faster</text><text x="172" y="150" text-anchor="end" fill="#ece6d8" font-family="'Geist Mono', ui-monospace, SFMono-Regular, Menlo, monospace" font-size="12">busy box</text><rect x="184" y="132.5" width="82.7" height="12" rx="4" fill="#2a2620"/><text x="273.7" y="143.5" fill="#aba297" font-size="11">17 req/s</text><rect x="184" y="147.5" width="97.2" height="12" rx="4" fill="#ff5d3b"/><text x="288.2" y="158.5" fill="#ece6d8" font-weight="700" font-size="11">20 req/s</text><text x="349.0" y="158.5" fill="#aba297" font-size="11">+18%</text><text x="172" y="204" text-anchor="end" fill="#ece6d8" font-family="'Geist Mono', ui-monospace, SFMono-Regular, Menlo, monospace" font-size="12">neighbours, busy</text><rect x="184" y="186.5" width="345.5" height="12" rx="4" fill="#2a2620"/><text x="536.5" y="197.5" fill="#aba297" font-size="11">1,781 Mloops/s</text><rect x="184" y="201.5" width="342.0" height="12" rx="4" fill="#ff5d3b"/><text x="533.0" y="212.5" fill="#ece6d8" font-weight="700" font-size="11">1,763 Mloops/s</text><text x="633.4" y="212.5" fill="#aba297" font-size="11">−1.0%</text></svg>